# Vectary OBJ Export units=mm
mtllib Project Name.mtl
o 000_Box_3
g Box_3
usemtl Chrome Satin
v 2.854 5.347 26.837
v 147.116 233.636 29.768
v -36.273 19.413 27.166
v 186.243 219.570 29.439
v 186.044 219.969 2.443
v 146.918 234.035 2.771
v 2.656 5.746 -0.160
v -36.471 19.812 0.169
vt -0.30569 -0.16815
vt 1.98594 -0.87737
vt -0.19165 0.09062
vt 1.87190 -1.13614
vt 1.84822 -1.13702
vt 1.96226 -0.87825
vt -0.32937 -0.16902
vt -0.21533 0.08974
vn 0.00308 -0.01479 0.99989
vn 0.00308 -0.01479 0.99989
vn 0.00308 -0.01479 0.99989
vn 0.00308 -0.01479 0.99989
vn 0.33835 0.94095 0.01143
vn 0.33835 0.94095 0.01143
vn 0.33835 0.94095 0.01143
vn 0.33835 0.94095 0.01143
vn 0.75966 -0.65014 -0.01519
vn 0.75966 -0.65014 -0.01519
vn 0.75966 -0.65014 -0.01519
vn 0.75966 -0.65014 -0.01519
vn -0.75966 0.65014 0.01519
vn -0.75966 0.65014 0.01519
vn -0.75966 0.65014 0.01519
vn -0.75966 0.65014 0.01519
vn -0.33835 -0.94095 -0.01143
vn -0.33835 -0.94095 -0.01143
vn -0.33835 -0.94095 -0.01143
vn -0.33835 -0.94095 -0.01143
vn -0.00308 0.01479 -0.99989
vn -0.00308 0.01479 -0.99989
vn -0.00308 0.01479 -0.99989
vn -0.00308 0.01479 -0.99989
f 2/2/2 3/3/3 1/1/1 4/4/4 
f 5/5/6 6/6/7 2/2/5 4/4/8 
f 7/7/10 5/5/11 4/4/9 1/1/12 
f 6/6/14 8/8/15 3/3/13 2/2/16 
f 8/8/18 7/7/19 1/1/17 3/3/20 
f 8/8/22 6/6/23 5/5/21 7/7/24 
o 001_Box_2
g Box_2
usemtl Chrome Satin 1
v 192.297 35.938 27.120
v 327.238 124.442 27.742
v 168.678 60.564 27.613
v 350.857 99.817 27.248
v 350.521 100.222 0.252
v 326.901 124.848 0.746
v 191.960 36.344 0.124
v 168.341 60.970 0.617
vt 0.09803 -1.33474
vt 1.03087 -2.10745
vt 0.32312 -1.16442
vt 0.80577 -2.27776
vt 0.78207 -2.27776
vt 1.00717 -2.10745
vt 0.07433 -1.33474
vt 0.29943 -1.16442
vn 0.00524 -0.01502 0.99987
vn 0.00524 -0.01502 0.99987
vn 0.00524 -0.01502 0.99987
vn 0.00524 -0.01502 0.99987
vn 0.72171 0.69219 0.00139
vn 0.72171 0.69219 0.00139
vn 0.72171 0.69219 0.00139
vn 0.72171 0.69219 0.00139
vn 0.37363 -0.92739 -0.01860
vn 0.37363 -0.92739 -0.01860
vn 0.37363 -0.92739 -0.01860
vn 0.37363 -0.92739 -0.01860
vn -0.37363 0.92739 0.01860
vn -0.37363 0.92739 0.01860
vn -0.37363 0.92739 0.01860
vn -0.37363 0.92739 0.01860
vn -0.72171 -0.69219 -0.00139
vn -0.72171 -0.69219 -0.00139
vn -0.72171 -0.69219 -0.00139
vn -0.72171 -0.69219 -0.00139
vn -0.00524 0.01502 -0.99987
vn -0.00524 0.01502 -0.99987
vn -0.00524 0.01502 -0.99987
vn -0.00524 0.01502 -0.99987
f 10/10/26 11/11/27 9/9/25 12/12/28 
f 13/13/30 14/14/31 10/10/29 12/12/32 
f 15/15/34 13/13/35 12/12/33 9/9/36 
f 14/14/38 16/16/39 11/11/37 10/10/40 
f 16/16/42 15/15/43 9/9/41 11/11/44 
f 16/16/46 14/14/47 13/13/45 15/15/48 
o 002_Box
g Box
usemtl Chrome Satin 2
v 204.200 190.775 29.384
v 327.609 124.134 27.735
v 241.285 207.001 29.433
v 290.524 107.908 27.686
v 290.187 108.313 0.690
v 327.272 124.540 0.739
v 203.863 191.181 2.388
v 240.948 207.407 2.437
vt 1.60373 -1.27439
vt 1.02809 -2.11006
vt 1.78171 -1.49382
vt 0.85011 -1.89062
vt 0.82641 -1.89062
vt 1.00439 -2.11006
vt 1.58003 -1.27439
vt 1.75801 -1.49382
vn 0.00524 -0.01502 0.99987
vn 0.00524 -0.01502 0.99987
vn 0.00524 -0.01502 0.99987
vn 0.00524 -0.01502 0.99987
vn 0.40080 -0.91597 -0.01876
vn 0.40080 -0.91597 -0.01876
vn 0.40080 -0.91597 -0.01876
vn 0.40080 -0.91597 -0.01876
vn -0.69254 -0.72138 -0.00220
vn -0.69254 -0.72138 -0.00220
vn -0.69254 -0.72138 -0.00220
vn -0.69254 -0.72138 -0.00220
vn 0.69254 0.72138 0.00220
vn 0.69254 0.72138 0.00220
vn 0.69254 0.72138 0.00220
vn 0.69254 0.72138 0.00220
vn -0.40080 0.91597 0.01876
vn -0.40080 0.91597 0.01876
vn -0.40080 0.91597 0.01876
vn -0.40080 0.91597 0.01876
vn -0.00524 0.01502 -0.99987
vn -0.00524 0.01502 -0.99987
vn -0.00524 0.01502 -0.99987
vn -0.00524 0.01502 -0.99987
f 18/18/50 19/19/51 17/17/49 20/20/52 
f 21/21/54 22/22/55 18/18/53 20/20/56 
f 23/23/58 21/21/59 20/20/57 17/17/60 
f 22/22/62 24/24/63 19/19/61 18/18/64 
f 24/24/66 23/23/67 17/17/65 19/19/68 
f 24/24/70 22/22/71 21/21/69 23/23/72 
o 003_Box_2
g Box_2
usemtl Chrome Satin 3
v -101.624 44.565 2.007
v -210.041 147.230 4.120
v -71.604 66.069 2.174
v -240.061 125.726 3.954
v -239.724 125.320 30.950
v -209.704 146.824 31.116
v -101.287 44.159 29.003
v -71.267 65.663 29.170
vt -0.01125 0.52191
vt 0.92159 1.29463
vt 0.21385 0.35160
vt 0.69649 1.46494
vt 0.72018 1.46494
vt 0.94528 1.29463
vt 0.01244 0.52191
vt 0.23754 0.35160
vn -0.00524 0.01504 -0.99987
vn -0.00524 0.01504 -0.99987
vn -0.00524 0.01504 -0.99987
vn -0.00524 0.01504 -0.99987
vn -0.58231 0.81274 0.01949
vn -0.58231 0.81274 0.01949
vn -0.58231 0.81274 0.01949
vn -0.58231 0.81274 0.01949
vn -0.50582 -0.86262 -0.00667
vn -0.50582 -0.86262 -0.00667
vn -0.50582 -0.86262 -0.00667
vn -0.50582 -0.86262 -0.00667
vn 0.50582 0.86262 0.00667
vn 0.50582 0.86262 0.00667
vn 0.50582 0.86262 0.00667
vn 0.50582 0.86262 0.00667
vn 0.58231 -0.81274 -0.01949
vn 0.58231 -0.81274 -0.01949
vn 0.58231 -0.81274 -0.01949
vn 0.58231 -0.81274 -0.01949
vn 0.00524 -0.01504 0.99987
vn 0.00524 -0.01504 0.99987
vn 0.00524 -0.01504 0.99987
vn 0.00524 -0.01504 0.99987
f 26/26/74 27/27/75 25/25/73 28/28/76 
f 29/29/78 30/30/79 26/26/77 28/28/80 
f 31/31/82 29/29/83 28/28/81 25/25/84 
f 30/30/86 32/32/87 27/27/85 26/26/88 
f 32/32/90 31/31/91 25/25/89 27/27/92 
f 32/32/94 30/30/95 29/29/93 31/31/96 
o 004_Box
g Box
usemtl Chrome Satin 4
v -70.714 198.295 4.158
v -210.491 146.970 4.119
v -102.739 218.543 4.631
v -178.466 126.722 3.646
v -178.129 126.316 30.642
v -210.154 146.564 31.115
v -70.377 197.889 31.155
v -102.402 218.137 31.627
vt 1.49445 0.46156
vt 0.91881 1.29723
vt 1.67243 0.68100
vt 0.74083 1.07779
vt 0.76452 1.07779
vt 0.94250 1.29723
vt 1.51814 0.46156
vt 1.69612 0.68100
vn -0.00524 0.01504 -0.99987
vn -0.00524 0.01504 -0.99987
vn -0.00524 0.01504 -0.99987
vn -0.00524 0.01504 -0.99987
vn -0.53446 -0.84517 -0.00605
vn -0.53446 -0.84517 -0.00605
vn -0.53446 -0.84517 -0.00605
vn -0.53446 -0.84517 -0.00605
vn 0.55326 -0.83278 -0.01943
vn 0.55326 -0.83278 -0.01943
vn 0.55326 -0.83278 -0.01943
vn 0.55326 -0.83278 -0.01943
vn -0.55326 0.83278 0.01943
vn -0.55326 0.83278 0.01943
vn -0.55326 0.83278 0.01943
vn -0.55326 0.83278 0.01943
vn 0.53446 0.84517 0.00605
vn 0.53446 0.84517 0.00605
vn 0.53446 0.84517 0.00605
vn 0.53446 0.84517 0.00605
vn 0.00524 -0.01504 0.99987
vn 0.00524 -0.01504 0.99987
vn 0.00524 -0.01504 0.99987
vn 0.00524 -0.01504 0.99987
f 34/34/98 35/35/99 33/33/97 36/36/100 
f 37/37/102 38/38/103 34/34/101 36/36/104 
f 39/39/106 37/37/107 36/36/105 33/33/108 
f 38/38/110 40/40/111 35/35/109 34/34/112 
f 40/40/114 39/39/115 33/33/113 35/35/116 
f 40/40/118 38/38/119 37/37/117 39/39/120 
